<svg xmlns="http://www.w3.org/2000/svg" viewBox="157 0.0322 1831 608">
  <path d="M 900 8 H 900 L 475 600 H 616 L 677 509 L 1027 8 Z M 908 287 V 602 H 1024 V 107.928 L 905 289 Z M 613 85 H 271 V 244 H 576 V 334.255 H 271 V 608 H 157 V 3 H 616 V 91 M 1307.38 78.5917 H 1207.07 V 255.35 H 1307.38 C 1372.61 255.35 1413.29 219.573 1413.29 166.971 C 1413.29 108.751 1371.91 78.5917 1307.38 78.5917 V 78.5917 Z M 1304.57 333.202 H 1207.07 V 603.82 H 1120.8 V 0.0322 H 1314.39 C 1428.72 0.0322 1500.96 64.5609 1500.96 164.866 C 1500.96 275.689 1412.59 333.202 1304.57 333.202 M 1988.417 460.298" fill="white"/>
</svg>