<svg id="Layer_1" data-name="Layer 1" xmlns="http://www.w3.org/2000/svg" viewBox="0 0 403.41 26.88"><defs><style>.cls-1{fill:#fff;}.cls-2{fill:#fb8f2e;}</style></defs><path class="cls-1" d="M42.63,38.47H54.48v4.14H47.63v6.11h5.74v3.93H47.63V62.9h-5Z" transform="translate(-42.63 -36.47)"/><path class="cls-1" d="M59.33,36.47c1.7,0,2.92.89,2.92,2.59S61,41.65,59.33,41.65s-2.93-.89-2.93-2.59S57.63,36.47,59.33,36.47ZM56.85,62.9V43.65h5V62.9Z" transform="translate(-42.63 -36.47)"/><path class="cls-1" d="M65.18,62.9V43.65h3l1.44,2.22a8.3,8.3,0,0,1,6-2.66c3.23,0,5.19,2.22,5.19,5.55V62.9h-5V49.57a2,2,0,0,0-2.18-2.22,5.75,5.75,0,0,0-3.37,1.19V62.9Z" transform="translate(-42.63 -36.47)"/><path class="cls-1" d="M93.69,60.72h-.15a6,6,0,0,1-5,2.63c-3.3,0-5.3-2.52-5.3-5.59v-.6c0-3.48,1.82-5.29,5.23-5.73l4.85-.63v-.19c0-2.15-.89-3.26-4.3-3.26a22.6,22.6,0,0,0-4,.45l-.44-.34a36.74,36.74,0,0,1,.7-3.81,24.64,24.64,0,0,1,4.56-.44c6.26,0,8.51,2.4,8.51,7.4v6.7c0,1.19.37,1.67,1.3,1.82l.74.11.22.48c-.18.89-.63,2.67-.63,2.67a3.7,3.7,0,0,1-2.63,1A3.61,3.61,0,0,1,93.69,60.72Zm-.37-3V53.65l-2.86.59c-1.44.3-2.22,1-2.22,2.41v.44a2.13,2.13,0,0,0,2.22,2.26A4,4,0,0,0,93.32,57.72Z" transform="translate(-42.63 -36.47)"/><path class="cls-1" d="M102.68,62.9V43.65h3l1.45,2.22a8.26,8.26,0,0,1,6-2.66c3.22,0,5.18,2.22,5.18,5.55V62.9h-5V49.57a2,2,0,0,0-2.18-2.22,5.75,5.75,0,0,0-3.37,1.19V62.9Z" transform="translate(-42.63 -36.47)"/><path class="cls-1" d="M128.9,63.35c-5.26,0-8.08-2.33-8.08-9.52v-.55c0-7.45,2.85-10.07,8.15-10.07a13.26,13.26,0,0,1,3.85.55c-.15,1.59-.44,3.63-.44,3.7l-.37.23a13.2,13.2,0,0,0-2.6-.34c-2.14,0-3.59,1-3.59,6v.45c0,4.59,1.67,5.4,3.67,5.4a10.85,10.85,0,0,0,2.85-.55l.37.22a30.77,30.77,0,0,1,.48,3.63A11.3,11.3,0,0,1,128.9,63.35Z" transform="translate(-42.63 -36.47)"/><path class="cls-1" d="M139.82,54.76c0,2.92.78,4.44,4.18,4.44a15.3,15.3,0,0,0,4.15-.81l.48.22c0,.07.26,1.85.37,3.41a12.87,12.87,0,0,1-6.07,1.33c-5.33,0-8.11-3-8.11-9.52V52.54c0-5.89,3.15-9.33,7.66-9.33h.41c4.3,0,6.78,2.59,6.78,7.73v.63a23.52,23.52,0,0,1-.34,3.19Zm0-3h5.11V50.39c0-2.7-.74-3.56-2.26-3.56h-.08c-1.33,0-2.77.93-2.77,3.56Z" transform="translate(-42.63 -36.47)"/><path class="cls-1" d="M169.59,52.28a12.34,12.34,0,0,1-1.23,6.25l3.93,4.37H169.1l-2.25-2.55a8,8,0,0,1-6.6,3c-4.36,0-7.14-2.45-7.14-6,0-3.15,1.78-4.74,4.89-6.89v-.07l-.63-.7c-1.89-2.11-3.08-3.82-3.08-6.23,0-3.25,2.34-5.44,6.22-5.44,3.71,0,6.19,2.15,6.19,5.56,0,2.66-1.15,4.33-5.11,7.18v.15l4.7,5.29.37.56h.08a12.72,12.72,0,0,0,.44-3.71v-2h2.41Zm-4.11,6.55-6.11-6.89-.41.3c-2.59,1.89-3.44,3.18-3.44,4.85,0,2.74,2,4.11,4.85,4.11A6.1,6.1,0,0,0,165.48,58.83Zm-6.15-10.44.78.89.63-.48c2.85-2.19,3.55-3.37,3.55-5.22,0-2.45-1.85-3.41-3.78-3.41s-3.81,1-3.81,3.29C156.7,45.21,157.4,46.21,159.33,48.39Z" transform="translate(-42.63 -36.47)"/><path class="cls-1" d="M186.92,58.16h-6.19l-1,4.74h-5.11l5.7-24.43h7.11l5.7,24.43H188ZM181.62,54H186l-1.3-5.93c-.26-1.15-.77-4.63-.77-4.63h-.26s-.41,3.15-.74,4.63Z" transform="translate(-42.63 -36.47)"/><path class="cls-1" d="M202.58,63.35c-5.26,0-8.07-2.33-8.07-9.52v-.55c0-7.45,2.85-10.07,8.14-10.07a13.26,13.26,0,0,1,3.85.55c-.15,1.59-.44,3.63-.44,3.7l-.37.23a13.17,13.17,0,0,0-2.59-.34c-2.15,0-3.6,1-3.6,6v.45c0,4.59,1.67,5.4,3.67,5.4a10.85,10.85,0,0,0,2.85-.55l.37.22a30.77,30.77,0,0,1,.48,3.63A11.3,11.3,0,0,1,202.58,63.35Z" transform="translate(-42.63 -36.47)"/><path class="cls-1" d="M216,63.35c-5.26,0-8.07-2.33-8.07-9.52v-.55c0-7.45,2.85-10.07,8.14-10.07a13.26,13.26,0,0,1,3.85.55c-.15,1.59-.44,3.63-.44,3.7l-.37.23a13.17,13.17,0,0,0-2.59-.34c-2.15,0-3.6,1-3.6,6v.45c0,4.59,1.67,5.4,3.67,5.4a10.85,10.85,0,0,0,2.85-.55l.37.22a30.77,30.77,0,0,1,.48,3.63A11.3,11.3,0,0,1,216,63.35Z" transform="translate(-42.63 -36.47)"/><path class="cls-1" d="M229.42,43.21c4.59,0,7.52,3.4,7.52,9.29v1.55c0,5.89-2.93,9.3-7.52,9.3h-.52c-4.59,0-7.52-3.41-7.52-9.3V52.5c0-5.89,2.93-9.29,7.52-9.29Zm2.52,7.73c0-2.48-1-3.74-2.78-3.74s-2.78,1.26-2.78,3.74v4.63c0,2.52,1,3.78,2.78,3.78s2.78-1.26,2.78-3.78Z" transform="translate(-42.63 -36.47)"/><path class="cls-1" d="M244.6,43.65V56.42c0,1.78.78,2.78,2.4,2.78a4.39,4.39,0,0,0,3.15-1.55v-14h5V57.31c0,1.11.33,1.67,1.3,1.82l.74.11.22.48-.63,2.67a3.91,3.91,0,0,1-6.26-1.67h-.18a6.17,6.17,0,0,1-5.19,2.63c-3.48,0-5.55-2.22-5.55-6.56V43.65Z" transform="translate(-42.63 -36.47)"/><path class="cls-1" d="M259.52,62.9V43.65h3l1.44,2.22a8.3,8.3,0,0,1,6-2.66c3.22,0,5.18,2.22,5.18,5.55V62.9h-5V49.57a2,2,0,0,0-2.18-2.22,5.75,5.75,0,0,0-3.37,1.19V62.9Z" transform="translate(-42.63 -36.47)"/><path class="cls-1" d="M277.1,43.65h2.37l1.37-4.44h3.63v4.44h4.37V47.8h-4.37v8.77c0,1.89.56,2.63,2.08,2.63a8.75,8.75,0,0,0,1.88-.18l.41.18v3.59a10.33,10.33,0,0,1-3.41.56c-4.7,0-6-2.52-6-6.7V47.8H277.1Z" transform="translate(-42.63 -36.47)"/><path class="cls-1" d="M300.84,60.72h-.15a6,6,0,0,1-5,2.63c-3.3,0-5.29-2.52-5.29-5.59v-.6c0-3.48,1.81-5.29,5.22-5.73l4.85-.63v-.19c0-2.15-.89-3.26-4.3-3.26a22.57,22.57,0,0,0-4,.45l-.45-.34a36.74,36.74,0,0,1,.7-3.81,24.64,24.64,0,0,1,4.56-.44c6.26,0,8.52,2.4,8.52,7.4v6.7c0,1.19.37,1.67,1.29,1.82l.74.11.22.48c-.18.89-.63,2.67-.63,2.67a3.66,3.66,0,0,1-2.62,1A3.62,3.62,0,0,1,300.84,60.72Zm-.37-3V53.65l-2.85.59c-1.45.3-2.23,1-2.23,2.41v.44a2.13,2.13,0,0,0,2.23,2.26A4,4,0,0,0,300.47,57.72Z" transform="translate(-42.63 -36.47)"/><path class="cls-1" d="M309.83,62.9V43.65h3l1.45,2.22a8.28,8.28,0,0,1,6-2.66c3.22,0,5.18,2.22,5.18,5.55V62.9h-5V49.57a2,2,0,0,0-2.18-2.22,5.78,5.78,0,0,0-3.37,1.19V62.9Z" transform="translate(-42.63 -36.47)"/><path class="cls-1" d="M327.42,43.65h2.37l1.37-4.44h3.63v4.44h4.37V47.8h-4.37v8.77c0,1.89.55,2.63,2.07,2.63a8.8,8.8,0,0,0,1.89-.18l.41.18v3.59a10.41,10.41,0,0,1-3.41.56c-4.7,0-6-2.52-6-6.7V47.8h-2.37Z" transform="translate(-42.63 -36.47)"/><path class="cls-2" d="M352.5,63.35c-4.7,0-8.92-2.15-8.92-11.55V50.5c0-9.22,3.7-12.48,8.74-12.48a13,13,0,0,1,3.66.52c-.11,1-.22,1.78-.22,1.78l-.33.22a13.76,13.76,0,0,0-3-.37c-4.93,0-6.41,4.44-6.41,10.4v.78c0,6.89,2,9.85,6.63,9.85a12.57,12.57,0,0,0,3.44-.56l.34.15s.15,1,.22,1.82A11.35,11.35,0,0,1,352.5,63.35Z" transform="translate(-42.63 -36.47)"/><path class="cls-2" d="M370.83,50.61c0-3.48-1.07-5.26-5.26-5.26a17,17,0,0,0-4.81.74l-.3-.26c0-.18.26-1.59.34-1.88a16.75,16.75,0,0,1,5-.74c5.55,0,7.48,2.51,7.48,7.4v7.85c0,2,.63,2.59,1.85,2.82l.59.11.15.25c-.07.26-.37,1.45-.37,1.45a2.71,2.71,0,0,1-1.19.26c-1.92,0-3.14-1.33-3.33-3.52h-.11a6.75,6.75,0,0,1-6,3.52,5.58,5.58,0,0,1-5.74-5.7v-.19c0-3.41,1.86-5.48,5.93-6l5.81-.7Zm0,6.85V52.83l-5.18.63c-3.11.37-4.15,1.78-4.15,3.82v.18a3.51,3.51,0,0,0,3.7,3.74C367.79,61.2,369.61,59.24,370.83,57.46Z" transform="translate(-42.63 -36.47)"/><path class="cls-2" d="M379.16,62.9V43.65h1.48l.67,2.3h0a5.3,5.3,0,0,1,4.82-2.74,5.87,5.87,0,0,1,1.07.11l-.22,2-.33.26a6.86,6.86,0,0,0-.93-.07,4.46,4.46,0,0,0-4.18,2.74V62.9Z" transform="translate(-42.63 -36.47)"/><path class="cls-2" d="M391.1,54.2c0,5.3,2.33,7,5.85,7a11.57,11.57,0,0,0,4.55-1l.37.19s.15,1.11.19,1.67a10.38,10.38,0,0,1-5.48,1.33c-5,0-7.89-3-7.89-9.52V52.54c0-5.89,3-9.33,7.33-9.33h.26c3.93,0,6.48,2.44,6.48,7.59v.59a24.92,24.92,0,0,1-.22,2.81Zm0-1.92h9.37V50.61c0-4.18-2.11-5.26-4.22-5.26H396c-2.56,0-4.89,1.85-4.89,6.45Z" transform="translate(-42.63 -36.47)"/><path class="cls-2" d="M407.47,54.2c0,5.3,2.33,7,5.85,7a11.63,11.63,0,0,0,4.55-1l.37.19s.15,1.11.18,1.67a10.34,10.34,0,0,1-5.48,1.33c-5,0-7.88-3-7.88-9.52V52.54c0-5.89,3-9.33,7.33-9.33h.26c3.92,0,6.48,2.44,6.48,7.59v.59a24.92,24.92,0,0,1-.22,2.81Zm0-1.92h9.36V50.61c0-4.18-2.11-5.26-4.22-5.26h-.26c-2.55,0-4.88,1.85-4.88,6.45Z" transform="translate(-42.63 -36.47)"/><path class="cls-2" d="M423.38,62.9V43.65h1.48l.67,2.3h0a5.27,5.27,0,0,1,4.81-2.74,5.91,5.91,0,0,1,1.08.11l-.23,2-.33.26a6.68,6.68,0,0,0-.93-.07,4.48,4.48,0,0,0-4.18,2.74V62.9Z" transform="translate(-42.63 -36.47)"/><path class="cls-2" d="M433.83,61l.36-.26a23,23,0,0,0,4.52.48c3.22,0,4.93-1.22,4.93-3.66,0-1.67-.89-2.71-3.63-3.34l-2.15-.48c-3-.67-4.7-1.81-4.7-5,0-2.93,1.81-5.55,7.11-5.55a23.61,23.61,0,0,1,4.14.48c-.07.74-.14,1.74-.18,1.88l-.37.19a23,23,0,0,0-3.59-.41c-3.63,0-4.71,1.41-4.71,3.41,0,1.59,1.15,2.48,3.12,2.92l2.18.49C444.6,53,446,54.8,446,57.54c0,3.74-2.4,5.81-7.22,5.81a22.27,22.27,0,0,1-4.81-.48C433.9,62.16,433.83,61,433.83,61Z" transform="translate(-42.63 -36.47)"/></svg>